<svg xmlns="http://www.w3.org/2000/svg" width="38" height="38" viewBox="0 0 38 38">
    <g fill="none" fill-rule="evenodd">
        <path fill="#FFF" fill-rule="nonzero" d="M14.868 1.434l5.12-.445 5.121.445c3.685.32 5.5.787 7.389 1.865 1.764 1.006 3.174 2.417 4.18 4.18 1.079 1.89 1.545 3.705 1.865 7.39l.446 5.12-.446 5.12c-.32 3.685-.786 5.5-1.864 7.389-1.007 1.764-2.417 3.174-4.181 4.18-1.89 1.079-3.704 1.545-7.389 1.865l-5.12.446-5.12-.446c-3.685-.32-5.5-.786-7.39-1.864-1.763-1.007-3.174-2.417-4.18-4.181-1.078-1.89-1.545-3.704-1.865-7.389l-.445-5.12.445-5.12c.32-3.685.787-5.5 1.865-7.39 1.006-1.763 2.417-3.174 4.18-4.18 1.89-1.078 3.705-1.545 7.39-1.865z" transform="translate(-1 -1)"/>
        <path fill="#233184" d="M15.136 4.423c-3.59.312-4.868.742-6.166 1.483-1.298.74-2.323 1.766-3.064 3.064-.74 1.298-1.17 2.576-1.483 6.166L4 20l.423 4.864c.312 3.59.742 4.868 1.483 6.166.74 1.298 1.766 2.323 3.064 3.064 1.298.74 2.576 1.17 6.166 1.483L20 36l4.864-.423c3.59-.312 4.868-.742 6.166-1.483 1.298-.74 2.323-1.766 3.064-3.064.74-1.298 1.17-2.576 1.483-6.166L36 20l-.423-4.864c-.312-3.59-.742-4.868-1.483-6.166-.74-1.298-1.766-2.323-3.064-3.064-1.298-.74-2.576-1.17-6.166-1.483L20 4l-4.864.423z" transform="translate(-1 -1)"/>
        <path fill="#FFF" fill-rule="nonzero" d="M13 19.462c0-.595.482-1.077 1.077-1.077h4.038c.15 0 .27-.12.27-.27v-4.038c0-.595.482-1.077 1.077-1.077h1.076c.595 0 1.077.482 1.077 1.077v4.038c0 .15.12.27.27.27h4.038c.595 0 1.077.482 1.077 1.077v1.076c0 .595-.482 1.077-1.077 1.077h-4.038c-.15 0-.27.12-.27.27v4.038c0 .595-.482 1.077-1.077 1.077h-1.076c-.595 0-1.077-.482-1.077-1.077v-4.038c0-.15-.12-.27-.27-.27h-4.038c-.595 0-1.077-.482-1.077-1.077v-1.076z" transform="translate(-1 -1)"/>
    </g>
</svg>
